<mxfile host="app.diagrams.net" agent="Mozilla/5.0 (X11; Ubuntu; Linux x86_64; rv:136.0) Gecko/20100101 Firefox/136.0" version="26.1.1">
  <diagram name="Page-1" id="QBSig3mkw3049cHHQUyR">
    <mxGraphModel dx="1480" dy="679" grid="1" gridSize="10" guides="1" tooltips="1" connect="1" arrows="1" fold="1" page="1" pageScale="1" pageWidth="3300" pageHeight="4681" math="0" shadow="0">
      <root>
        <mxCell id="0" />
        <mxCell id="1" parent="0" />
        <mxCell id="JhQEL_9SvEY2_sTdxR8F-50" value="" style="rounded=0;whiteSpace=wrap;html=1;" vertex="1" parent="1">
          <mxGeometry x="80" y="160" width="1010" height="720" as="geometry" />
        </mxCell>
        <mxCell id="JhQEL_9SvEY2_sTdxR8F-1" value="Facebook Post" style="swimlane;fontStyle=1;align=center;verticalAlign=top;childLayout=stackLayout;horizontal=1;startSize=26;horizontalStack=0;resizeParent=1;resizeParentMax=0;resizeLast=0;collapsible=1;marginBottom=0;whiteSpace=wrap;html=1;" vertex="1" parent="1">
          <mxGeometry x="800" y="200" width="250" height="658" as="geometry" />
        </mxCell>
        <mxCell id="JhQEL_9SvEY2_sTdxR8F-2" value="&lt;u&gt;- ids_totais : int&lt;/u&gt;" style="text;strokeColor=none;fillColor=none;align=left;verticalAlign=top;spacingLeft=4;spacingRight=4;overflow=hidden;rotatable=0;points=[[0,0.5],[1,0.5]];portConstraint=eastwest;whiteSpace=wrap;html=1;" vertex="1" parent="JhQEL_9SvEY2_sTdxR8F-1">
          <mxGeometry y="26" width="250" height="26" as="geometry" />
        </mxCell>
        <mxCell id="JhQEL_9SvEY2_sTdxR8F-4" value="- identificador : int" style="text;strokeColor=none;fillColor=none;align=left;verticalAlign=top;spacingLeft=4;spacingRight=4;overflow=hidden;rotatable=0;points=[[0,0.5],[1,0.5]];portConstraint=eastwest;whiteSpace=wrap;html=1;" vertex="1" parent="JhQEL_9SvEY2_sTdxR8F-1">
          <mxGeometry y="52" width="250" height="26" as="geometry" />
        </mxCell>
        <mxCell id="JhQEL_9SvEY2_sTdxR8F-6" value="- utilizador : String" style="text;strokeColor=none;fillColor=none;align=left;verticalAlign=top;spacingLeft=4;spacingRight=4;overflow=hidden;rotatable=0;points=[[0,0.5],[1,0.5]];portConstraint=eastwest;whiteSpace=wrap;html=1;" vertex="1" parent="JhQEL_9SvEY2_sTdxR8F-1">
          <mxGeometry y="78" width="250" height="26" as="geometry" />
        </mxCell>
        <mxCell id="JhQEL_9SvEY2_sTdxR8F-5" value="- instante : LocalDateTime" style="text;strokeColor=none;fillColor=none;align=left;verticalAlign=top;spacingLeft=4;spacingRight=4;overflow=hidden;rotatable=0;points=[[0,0.5],[1,0.5]];portConstraint=eastwest;whiteSpace=wrap;html=1;" vertex="1" parent="JhQEL_9SvEY2_sTdxR8F-1">
          <mxGeometry y="104" width="250" height="26" as="geometry" />
        </mxCell>
        <mxCell id="JhQEL_9SvEY2_sTdxR8F-7" value="- conteudo : String" style="text;strokeColor=none;fillColor=none;align=left;verticalAlign=top;spacingLeft=4;spacingRight=4;overflow=hidden;rotatable=0;points=[[0,0.5],[1,0.5]];portConstraint=eastwest;whiteSpace=wrap;html=1;" vertex="1" parent="JhQEL_9SvEY2_sTdxR8F-1">
          <mxGeometry y="130" width="250" height="26" as="geometry" />
        </mxCell>
        <mxCell id="JhQEL_9SvEY2_sTdxR8F-8" value="- likes : int" style="text;strokeColor=none;fillColor=none;align=left;verticalAlign=top;spacingLeft=4;spacingRight=4;overflow=hidden;rotatable=0;points=[[0,0.5],[1,0.5]];portConstraint=eastwest;whiteSpace=wrap;html=1;" vertex="1" parent="JhQEL_9SvEY2_sTdxR8F-1">
          <mxGeometry y="156" width="250" height="26" as="geometry" />
        </mxCell>
        <mxCell id="JhQEL_9SvEY2_sTdxR8F-9" value="- comentarios : ArrayList&amp;lt;String&amp;gt;" style="text;strokeColor=none;fillColor=none;align=left;verticalAlign=top;spacingLeft=4;spacingRight=4;overflow=hidden;rotatable=0;points=[[0,0.5],[1,0.5]];portConstraint=eastwest;whiteSpace=wrap;html=1;" vertex="1" parent="JhQEL_9SvEY2_sTdxR8F-1">
          <mxGeometry y="182" width="250" height="26" as="geometry" />
        </mxCell>
        <mxCell id="JhQEL_9SvEY2_sTdxR8F-3" value="" style="line;strokeWidth=1;fillColor=none;align=left;verticalAlign=middle;spacingTop=-1;spacingLeft=3;spacingRight=3;rotatable=0;labelPosition=right;points=[];portConstraint=eastwest;strokeColor=inherit;" vertex="1" parent="JhQEL_9SvEY2_sTdxR8F-1">
          <mxGeometry y="208" width="250" height="8" as="geometry" />
        </mxCell>
        <mxCell id="JhQEL_9SvEY2_sTdxR8F-10" value="+ FBPost()" style="text;strokeColor=none;fillColor=none;align=left;verticalAlign=top;spacingLeft=4;spacingRight=4;overflow=hidden;rotatable=0;points=[[0,0.5],[1,0.5]];portConstraint=eastwest;whiteSpace=wrap;html=1;" vertex="1" parent="JhQEL_9SvEY2_sTdxR8F-1">
          <mxGeometry y="216" width="250" height="26" as="geometry" />
        </mxCell>
        <mxCell id="JhQEL_9SvEY2_sTdxR8F-11" value="+ FBPost(user : String, conteudo : String)" style="text;strokeColor=none;fillColor=none;align=left;verticalAlign=top;spacingLeft=4;spacingRight=4;overflow=hidden;rotatable=0;points=[[0,0.5],[1,0.5]];portConstraint=eastwest;whiteSpace=wrap;html=1;" vertex="1" parent="JhQEL_9SvEY2_sTdxR8F-1">
          <mxGeometry y="242" width="250" height="26" as="geometry" />
        </mxCell>
        <mxCell id="JhQEL_9SvEY2_sTdxR8F-12" value="+ FBPost(outro : FBPost)" style="text;strokeColor=none;fillColor=none;align=left;verticalAlign=top;spacingLeft=4;spacingRight=4;overflow=hidden;rotatable=0;points=[[0,0.5],[1,0.5]];portConstraint=eastwest;whiteSpace=wrap;html=1;" vertex="1" parent="JhQEL_9SvEY2_sTdxR8F-1">
          <mxGeometry y="268" width="250" height="26" as="geometry" />
        </mxCell>
        <mxCell id="JhQEL_9SvEY2_sTdxR8F-13" value="&lt;u&gt;+ get_ids_totais() : int&lt;/u&gt;" style="text;strokeColor=none;fillColor=none;align=left;verticalAlign=top;spacingLeft=4;spacingRight=4;overflow=hidden;rotatable=0;points=[[0,0.5],[1,0.5]];portConstraint=eastwest;whiteSpace=wrap;html=1;" vertex="1" parent="JhQEL_9SvEY2_sTdxR8F-1">
          <mxGeometry y="294" width="250" height="26" as="geometry" />
        </mxCell>
        <mxCell id="JhQEL_9SvEY2_sTdxR8F-14" value="+ get_identificador() : int" style="text;strokeColor=none;fillColor=none;align=left;verticalAlign=top;spacingLeft=4;spacingRight=4;overflow=hidden;rotatable=0;points=[[0,0.5],[1,0.5]];portConstraint=eastwest;whiteSpace=wrap;html=1;" vertex="1" parent="JhQEL_9SvEY2_sTdxR8F-1">
          <mxGeometry y="320" width="250" height="26" as="geometry" />
        </mxCell>
        <mxCell id="JhQEL_9SvEY2_sTdxR8F-15" value="+ get_utilizador() : String" style="text;strokeColor=none;fillColor=none;align=left;verticalAlign=top;spacingLeft=4;spacingRight=4;overflow=hidden;rotatable=0;points=[[0,0.5],[1,0.5]];portConstraint=eastwest;whiteSpace=wrap;html=1;" vertex="1" parent="JhQEL_9SvEY2_sTdxR8F-1">
          <mxGeometry y="346" width="250" height="26" as="geometry" />
        </mxCell>
        <mxCell id="JhQEL_9SvEY2_sTdxR8F-16" value="+ get_instante() : LocalDateTime" style="text;strokeColor=none;fillColor=none;align=left;verticalAlign=top;spacingLeft=4;spacingRight=4;overflow=hidden;rotatable=0;points=[[0,0.5],[1,0.5]];portConstraint=eastwest;whiteSpace=wrap;html=1;" vertex="1" parent="JhQEL_9SvEY2_sTdxR8F-1">
          <mxGeometry y="372" width="250" height="26" as="geometry" />
        </mxCell>
        <mxCell id="JhQEL_9SvEY2_sTdxR8F-18" value="+ get_conteudo() : String" style="text;strokeColor=none;fillColor=none;align=left;verticalAlign=top;spacingLeft=4;spacingRight=4;overflow=hidden;rotatable=0;points=[[0,0.5],[1,0.5]];portConstraint=eastwest;whiteSpace=wrap;html=1;" vertex="1" parent="JhQEL_9SvEY2_sTdxR8F-1">
          <mxGeometry y="398" width="250" height="26" as="geometry" />
        </mxCell>
        <mxCell id="JhQEL_9SvEY2_sTdxR8F-17" value="+ get_likes() : int" style="text;strokeColor=none;fillColor=none;align=left;verticalAlign=top;spacingLeft=4;spacingRight=4;overflow=hidden;rotatable=0;points=[[0,0.5],[1,0.5]];portConstraint=eastwest;whiteSpace=wrap;html=1;" vertex="1" parent="JhQEL_9SvEY2_sTdxR8F-1">
          <mxGeometry y="424" width="250" height="26" as="geometry" />
        </mxCell>
        <mxCell id="JhQEL_9SvEY2_sTdxR8F-19" value="+ get_comentarios() : List&amp;lt;String&amp;gt;" style="text;strokeColor=none;fillColor=none;align=left;verticalAlign=top;spacingLeft=4;spacingRight=4;overflow=hidden;rotatable=0;points=[[0,0.5],[1,0.5]];portConstraint=eastwest;whiteSpace=wrap;html=1;" vertex="1" parent="JhQEL_9SvEY2_sTdxR8F-1">
          <mxGeometry y="450" width="250" height="26" as="geometry" />
        </mxCell>
        <mxCell id="JhQEL_9SvEY2_sTdxR8F-20" value="+ set_utilizador(user : String)" style="text;strokeColor=none;fillColor=none;align=left;verticalAlign=top;spacingLeft=4;spacingRight=4;overflow=hidden;rotatable=0;points=[[0,0.5],[1,0.5]];portConstraint=eastwest;whiteSpace=wrap;html=1;" vertex="1" parent="JhQEL_9SvEY2_sTdxR8F-1">
          <mxGeometry y="476" width="250" height="26" as="geometry" />
        </mxCell>
        <mxCell id="JhQEL_9SvEY2_sTdxR8F-22" value="+ set_conteudo(conteudo : String)" style="text;strokeColor=none;fillColor=none;align=left;verticalAlign=top;spacingLeft=4;spacingRight=4;overflow=hidden;rotatable=0;points=[[0,0.5],[1,0.5]];portConstraint=eastwest;whiteSpace=wrap;html=1;" vertex="1" parent="JhQEL_9SvEY2_sTdxR8F-1">
          <mxGeometry y="502" width="250" height="26" as="geometry" />
        </mxCell>
        <mxCell id="JhQEL_9SvEY2_sTdxR8F-23" value="+ like()" style="text;strokeColor=none;fillColor=none;align=left;verticalAlign=top;spacingLeft=4;spacingRight=4;overflow=hidden;rotatable=0;points=[[0,0.5],[1,0.5]];portConstraint=eastwest;whiteSpace=wrap;html=1;" vertex="1" parent="JhQEL_9SvEY2_sTdxR8F-1">
          <mxGeometry y="528" width="250" height="26" as="geometry" />
        </mxCell>
        <mxCell id="JhQEL_9SvEY2_sTdxR8F-24" value="+ adiciona_comentario(comentario : String)" style="text;strokeColor=none;fillColor=none;align=left;verticalAlign=top;spacingLeft=4;spacingRight=4;overflow=hidden;rotatable=0;points=[[0,0.5],[1,0.5]];portConstraint=eastwest;whiteSpace=wrap;html=1;" vertex="1" parent="JhQEL_9SvEY2_sTdxR8F-1">
          <mxGeometry y="554" width="250" height="26" as="geometry" />
        </mxCell>
        <mxCell id="JhQEL_9SvEY2_sTdxR8F-25" value="+ equals(o : Object) : boolean" style="text;strokeColor=none;fillColor=none;align=left;verticalAlign=top;spacingLeft=4;spacingRight=4;overflow=hidden;rotatable=0;points=[[0,0.5],[1,0.5]];portConstraint=eastwest;whiteSpace=wrap;html=1;" vertex="1" parent="JhQEL_9SvEY2_sTdxR8F-1">
          <mxGeometry y="580" width="250" height="26" as="geometry" />
        </mxCell>
        <mxCell id="JhQEL_9SvEY2_sTdxR8F-26" value="+ clone() : FBPost" style="text;strokeColor=none;fillColor=none;align=left;verticalAlign=top;spacingLeft=4;spacingRight=4;overflow=hidden;rotatable=0;points=[[0,0.5],[1,0.5]];portConstraint=eastwest;whiteSpace=wrap;html=1;" vertex="1" parent="JhQEL_9SvEY2_sTdxR8F-1">
          <mxGeometry y="606" width="250" height="26" as="geometry" />
        </mxCell>
        <mxCell id="JhQEL_9SvEY2_sTdxR8F-27" value="+ toString() : String" style="text;strokeColor=none;fillColor=none;align=left;verticalAlign=top;spacingLeft=4;spacingRight=4;overflow=hidden;rotatable=0;points=[[0,0.5],[1,0.5]];portConstraint=eastwest;whiteSpace=wrap;html=1;" vertex="1" parent="JhQEL_9SvEY2_sTdxR8F-1">
          <mxGeometry y="632" width="250" height="26" as="geometry" />
        </mxCell>
        <mxCell id="JhQEL_9SvEY2_sTdxR8F-48" style="edgeStyle=orthogonalEdgeStyle;rounded=0;orthogonalLoop=1;jettySize=auto;html=1;startArrow=diamondThin;startFill=1;endArrow=open;endFill=0;startSize=24;endSize=15;" edge="1" parent="1" source="JhQEL_9SvEY2_sTdxR8F-28" target="JhQEL_9SvEY2_sTdxR8F-1">
          <mxGeometry relative="1" as="geometry" />
        </mxCell>
        <mxCell id="JhQEL_9SvEY2_sTdxR8F-28" value="Facebook Feed" style="swimlane;fontStyle=1;align=center;verticalAlign=top;childLayout=stackLayout;horizontal=1;startSize=26;horizontalStack=0;resizeParent=1;resizeParentMax=0;resizeLast=0;collapsible=1;marginBottom=0;whiteSpace=wrap;html=1;" vertex="1" parent="1">
          <mxGeometry x="150" y="317" width="500" height="424" as="geometry" />
        </mxCell>
        <mxCell id="JhQEL_9SvEY2_sTdxR8F-30" value="" style="line;strokeWidth=1;fillColor=none;align=left;verticalAlign=middle;spacingTop=-1;spacingLeft=3;spacingRight=3;rotatable=0;labelPosition=right;points=[];portConstraint=eastwest;strokeColor=inherit;" vertex="1" parent="JhQEL_9SvEY2_sTdxR8F-28">
          <mxGeometry y="26" width="500" height="8" as="geometry" />
        </mxCell>
        <mxCell id="JhQEL_9SvEY2_sTdxR8F-31" value="+ FBFeed()" style="text;strokeColor=none;fillColor=none;align=left;verticalAlign=top;spacingLeft=4;spacingRight=4;overflow=hidden;rotatable=0;points=[[0,0.5],[1,0.5]];portConstraint=eastwest;whiteSpace=wrap;html=1;" vertex="1" parent="JhQEL_9SvEY2_sTdxR8F-28">
          <mxGeometry y="34" width="500" height="26" as="geometry" />
        </mxCell>
        <mxCell id="JhQEL_9SvEY2_sTdxR8F-32" value="+ FBFeed(outro : FBFeed)" style="text;strokeColor=none;fillColor=none;align=left;verticalAlign=top;spacingLeft=4;spacingRight=4;overflow=hidden;rotatable=0;points=[[0,0.5],[1,0.5]];portConstraint=eastwest;whiteSpace=wrap;html=1;" vertex="1" parent="JhQEL_9SvEY2_sTdxR8F-28">
          <mxGeometry y="60" width="500" height="26" as="geometry" />
        </mxCell>
        <mxCell id="JhQEL_9SvEY2_sTdxR8F-34" value="+ get_posts() : List&amp;lt;FBPost&amp;gt;" style="text;strokeColor=none;fillColor=none;align=left;verticalAlign=top;spacingLeft=4;spacingRight=4;overflow=hidden;rotatable=0;points=[[0,0.5],[1,0.5]];portConstraint=eastwest;whiteSpace=wrap;html=1;" vertex="1" parent="JhQEL_9SvEY2_sTdxR8F-28">
          <mxGeometry y="86" width="500" height="26" as="geometry" />
        </mxCell>
        <mxCell id="JhQEL_9SvEY2_sTdxR8F-33" value="+ numero_posts() : int" style="text;strokeColor=none;fillColor=none;align=left;verticalAlign=top;spacingLeft=4;spacingRight=4;overflow=hidden;rotatable=0;points=[[0,0.5],[1,0.5]];portConstraint=eastwest;whiteSpace=wrap;html=1;" vertex="1" parent="JhQEL_9SvEY2_sTdxR8F-28">
          <mxGeometry y="112" width="500" height="26" as="geometry" />
        </mxCell>
        <mxCell id="JhQEL_9SvEY2_sTdxR8F-35" value="+ posts_of(user : String) : List&amp;lt;FBPost&amp;gt;" style="text;strokeColor=none;fillColor=none;align=left;verticalAlign=top;spacingLeft=4;spacingRight=4;overflow=hidden;rotatable=0;points=[[0,0.5],[1,0.5]];portConstraint=eastwest;whiteSpace=wrap;html=1;" vertex="1" parent="JhQEL_9SvEY2_sTdxR8F-28">
          <mxGeometry y="138" width="500" height="26" as="geometry" />
        </mxCell>
        <mxCell id="JhQEL_9SvEY2_sTdxR8F-36" value="+ posts_of_time(user : String, inicio : LocalDateTime, fim : LocalDateTime) : List&amp;lt;FBPost&amp;gt;" style="text;strokeColor=none;fillColor=none;align=left;verticalAlign=top;spacingLeft=4;spacingRight=4;overflow=hidden;rotatable=0;points=[[0,0.5],[1,0.5]];portConstraint=eastwest;whiteSpace=wrap;html=1;" vertex="1" parent="JhQEL_9SvEY2_sTdxR8F-28">
          <mxGeometry y="164" width="500" height="26" as="geometry" />
        </mxCell>
        <mxCell id="JhQEL_9SvEY2_sTdxR8F-37" value="+ get_post(id : int) : FBPost" style="text;strokeColor=none;fillColor=none;align=left;verticalAlign=top;spacingLeft=4;spacingRight=4;overflow=hidden;rotatable=0;points=[[0,0.5],[1,0.5]];portConstraint=eastwest;whiteSpace=wrap;html=1;" vertex="1" parent="JhQEL_9SvEY2_sTdxR8F-28">
          <mxGeometry y="190" width="500" height="26" as="geometry" />
        </mxCell>
        <mxCell id="JhQEL_9SvEY2_sTdxR8F-38" value="+ comment(post_id : int, comment : String)" style="text;strokeColor=none;fillColor=none;align=left;verticalAlign=top;spacingLeft=4;spacingRight=4;overflow=hidden;rotatable=0;points=[[0,0.5],[1,0.5]];portConstraint=eastwest;whiteSpace=wrap;html=1;" vertex="1" parent="JhQEL_9SvEY2_sTdxR8F-28">
          <mxGeometry y="216" width="500" height="26" as="geometry" />
        </mxCell>
        <mxCell id="JhQEL_9SvEY2_sTdxR8F-39" value="+ comment(post : FBPost, comentario : String)" style="text;strokeColor=none;fillColor=none;align=left;verticalAlign=top;spacingLeft=4;spacingRight=4;overflow=hidden;rotatable=0;points=[[0,0.5],[1,0.5]];portConstraint=eastwest;whiteSpace=wrap;html=1;" vertex="1" parent="JhQEL_9SvEY2_sTdxR8F-28">
          <mxGeometry y="242" width="500" height="26" as="geometry" />
        </mxCell>
        <mxCell id="JhQEL_9SvEY2_sTdxR8F-40" value="+ like(post : FBPost)" style="text;strokeColor=none;fillColor=none;align=left;verticalAlign=top;spacingLeft=4;spacingRight=4;overflow=hidden;rotatable=0;points=[[0,0.5],[1,0.5]];portConstraint=eastwest;whiteSpace=wrap;html=1;" vertex="1" parent="JhQEL_9SvEY2_sTdxR8F-28">
          <mxGeometry y="268" width="500" height="26" as="geometry" />
        </mxCell>
        <mxCell id="JhQEL_9SvEY2_sTdxR8F-41" value="+ like(post_id : int)" style="text;strokeColor=none;fillColor=none;align=left;verticalAlign=top;spacingLeft=4;spacingRight=4;overflow=hidden;rotatable=0;points=[[0,0.5],[1,0.5]];portConstraint=eastwest;whiteSpace=wrap;html=1;" vertex="1" parent="JhQEL_9SvEY2_sTdxR8F-28">
          <mxGeometry y="294" width="500" height="26" as="geometry" />
        </mxCell>
        <mxCell id="JhQEL_9SvEY2_sTdxR8F-47" value="+ top_5_comments() : List&amp;lt;Integer&amp;gt;" style="text;strokeColor=none;fillColor=none;align=left;verticalAlign=top;spacingLeft=4;spacingRight=4;overflow=hidden;rotatable=0;points=[[0,0.5],[1,0.5]];portConstraint=eastwest;whiteSpace=wrap;html=1;" vertex="1" parent="JhQEL_9SvEY2_sTdxR8F-28">
          <mxGeometry y="320" width="500" height="26" as="geometry" />
        </mxCell>
        <mxCell id="JhQEL_9SvEY2_sTdxR8F-42" value="+ equals(o : Object) : boolean" style="text;strokeColor=none;fillColor=none;align=left;verticalAlign=top;spacingLeft=4;spacingRight=4;overflow=hidden;rotatable=0;points=[[0,0.5],[1,0.5]];portConstraint=eastwest;whiteSpace=wrap;html=1;" vertex="1" parent="JhQEL_9SvEY2_sTdxR8F-28">
          <mxGeometry y="346" width="500" height="26" as="geometry" />
        </mxCell>
        <mxCell id="JhQEL_9SvEY2_sTdxR8F-43" value="+ clone() : FBFeed" style="text;strokeColor=none;fillColor=none;align=left;verticalAlign=top;spacingLeft=4;spacingRight=4;overflow=hidden;rotatable=0;points=[[0,0.5],[1,0.5]];portConstraint=eastwest;whiteSpace=wrap;html=1;" vertex="1" parent="JhQEL_9SvEY2_sTdxR8F-28">
          <mxGeometry y="372" width="500" height="26" as="geometry" />
        </mxCell>
        <mxCell id="JhQEL_9SvEY2_sTdxR8F-44" value="+ toString() : String" style="text;strokeColor=none;fillColor=none;align=left;verticalAlign=top;spacingLeft=4;spacingRight=4;overflow=hidden;rotatable=0;points=[[0,0.5],[1,0.5]];portConstraint=eastwest;whiteSpace=wrap;html=1;" vertex="1" parent="JhQEL_9SvEY2_sTdxR8F-28">
          <mxGeometry y="398" width="500" height="26" as="geometry" />
        </mxCell>
        <mxCell id="JhQEL_9SvEY2_sTdxR8F-49" value="- posts" style="text;html=1;align=center;verticalAlign=middle;resizable=0;points=[];autosize=1;strokeColor=none;fillColor=none;" vertex="1" parent="1">
          <mxGeometry x="720" y="500" width="60" height="30" as="geometry" />
        </mxCell>
      </root>
    </mxGraphModel>
  </diagram>
</mxfile>
